<svg width="51" height="51" viewBox="0 0 51 51" fill="none" xmlns="http://www.w3.org/2000/svg">
<path fill-rule="evenodd" clip-rule="evenodd" d="M12.4665 29.0927C11.5274 28.1311 11 26.8277 11 25.4687C11 24.1098 11.5274 22.8063 12.4665 21.8448L31.3739 2.50128C32.3146 1.5397 33.5902 0.999676 34.9202 0.999996C35.5788 1.00016 36.2308 1.13297 36.8392 1.39085C37.4475 1.64874 38.0003 2.02664 38.4658 2.50299C38.9314 2.97934 39.3006 3.5448 39.5525 4.1671C39.8044 4.78939 39.934 5.45633 39.9338 6.12983C39.9336 6.80333 39.8038 7.4702 39.5516 8.09237C39.2995 8.71455 38.9299 9.27983 38.4642 9.75596L23.1036 25.4687L38.4675 41.1815C38.9466 41.6543 39.3289 42.22 39.592 42.8456C39.8551 43.4711 39.9937 44.1439 39.9998 44.8248C40.0059 45.5058 39.8793 46.1811 39.6275 46.8114C39.3757 47.4418 39.0036 48.0145 38.533 48.4963C38.0624 48.978 37.5027 49.359 36.8866 49.6172C36.2705 49.8753 35.6103 50.0054 34.9445 49.9998C34.2787 49.9942 33.6206 49.8531 33.0087 49.5846C32.3968 49.3162 31.8434 48.9257 31.3806 48.4362L12.4598 29.0927H12.4665Z"/>
</svg>
