<svg width="51" height="51" viewBox="0 0 51 51" fill="none" xmlns="http://www.w3.org/2000/svg">
<path fill-rule="evenodd" clip-rule="evenodd" d="M38.5335 21.9073C39.4726 22.8689 40 24.1723 40 25.5313C40 26.8902 39.4726 28.1937 38.5335 29.1552L19.6261 48.4987C18.6854 49.4603 17.4098 50.0003 16.0798 50C15.4212 49.9998 14.7692 49.867 14.1608 49.6091C13.5525 49.3513 12.9997 48.9734 12.5342 48.497C12.0686 48.0207 11.6994 47.4552 11.4475 46.8329C11.1956 46.2106 11.066 45.5437 11.0662 44.8702C11.0664 44.1967 11.1962 43.5298 11.4484 42.9076C11.7005 42.2854 12.0701 41.7202 12.5358 41.244L27.8964 25.5313L12.5325 9.81849C12.0534 9.34566 11.6711 8.77998 11.408 8.15444C11.1449 7.52891 11.0063 6.85606 11.0002 6.17515C10.9941 5.49424 11.1207 4.8189 11.3725 4.18855C11.6243 3.55819 11.9964 2.98545 12.467 2.50372C12.9376 2.022 13.4973 1.64095 14.1134 1.3828C14.7295 1.12465 15.3897 0.994581 16.0555 1.00018C16.7213 1.00577 17.3794 1.14691 17.9913 1.41538C18.6032 1.68384 19.1567 2.07425 19.6194 2.56381L38.5402 21.9073L38.5335 21.9073Z"/>
</svg>
